<?xml version="1.0" encoding="utf-8"?>
<!-- Generator: Adobe Illustrator 18.0.0, SVG Export Plug-In . SVG Version: 6.00 Build 0)  -->
<!DOCTYPE svg PUBLIC "-//W3C//DTD SVG 1.1//EN" "http://www.w3.org/Graphics/SVG/1.1/DTD/svg11.dtd">
<svg version="1.1" xmlns="http://www.w3.org/2000/svg" xmlns:xlink="http://www.w3.org/1999/xlink" x="0px" y="0px" width="56px"
	 height="308px" viewBox="0 0 56 308" enable-background="new 0 0 56 308" xml:space="preserve">
<g id="label">
</g>
<g id="BC">
</g>
<g id="brand">
</g>
<g id="generic">
</g>
<g id="negative">
</g>
<g id="creation">
	<path id="tutorial-on" fill="#F68802" d="M42,304c-0.4,0-0.8-0.3-0.9-0.7c0-0.1-0.9-2.3-4.1-2.3c-3.6,0-5.5,0.9-5.6,0.9
		c-0.3,0.1-0.7,0.1-1-0.1c-0.3-0.2-0.5-0.5-0.5-0.8v-15c0-0.4,0.2-0.7,0.6-0.9c0.1,0,2.3-1.1,6.4-1.1c2.6,0,4.1,1.1,5,2.1
		c0.9-1,2.4-2.1,5-2.1c4.2,0,6.4,1.1,6.4,1.1c0.3,0.2,0.6,0.5,0.6,0.9v15c0,0.3-0.2,0.7-0.5,0.8c-0.3,0.2-0.7,0.2-1,0.1
		c0,0-1.9-0.9-5.6-0.9c-3.2,0-4,2.3-4.1,2.3C42.8,303.7,42.4,304,42,304z M43,298v-8c0-0.6-0.4-1-1-1s-1,0.4-1,1v8c0,0.6,0.4,1,1,1
		S43,298.6,43,298z"/>
	<g id="tutorial">
		<g>
			<path fill="#F68802" d="M14,304c-0.4,0-0.8-0.3-0.9-0.7c0-0.1-0.9-2.3-4.1-2.3c-3.6,0-5.5,0.9-5.6,0.9c-0.3,0.1-0.7,0.1-1-0.1
				C2.2,301.7,2,301.3,2,301v-15c0-0.4,0.2-0.7,0.6-0.9c0.1,0,2.3-1.1,6.4-1.1c4.6,0,5.9,3.5,5.9,3.7c0,0.1,0.1,0.2,0.1,0.3v15
				c0,0.5-0.4,0.9-0.8,1C14.1,304,14.1,304,14,304z M9,299c1.8,0,3.1,0.5,4,1.2v-12c-0.2-0.5-1.2-2.2-4-2.2c-2.5,0-4.2,0.4-5,0.7
				v12.9C5.1,299.3,6.8,299,9,299z"/>
		</g>
		<g>
			<path fill="#F68802" d="M14,304c-0.1,0-0.1,0-0.2,0c-0.5-0.1-0.8-0.5-0.8-1v-15c0-0.1,0-0.2,0.1-0.3c0.1-0.2,1.3-3.7,5.9-3.7
				c4.2,0,6.4,1.1,6.4,1.1c0.3,0.2,0.6,0.5,0.6,0.9v15c0,0.3-0.2,0.7-0.5,0.8c-0.3,0.2-0.7,0.2-1,0.1c0,0-1.9-0.9-5.6-0.9
				c-3.2,0-4,2.3-4.1,2.3C14.8,303.7,14.4,304,14,304z M15,288.2v12c0.9-0.7,2.2-1.2,4-1.2c2.2,0,3.9,0.3,5,0.6v-12.9
				c-0.8-0.3-2.5-0.7-5-0.7C16.2,286,15.2,287.7,15,288.2z"/>
		</g>
	</g>
	<g id="model-on">
		<path fill="#F68802" d="M53,239h-9c-0.6,0-1,0.4-1,1v9c0,0.6,0.4,1,1,1h9c0.6,0,1-0.4,1-1v-9C54,239.4,53.6,239,53,239z"/>
		<path fill="#F68802" d="M36,237h12c0,0,0,0,0,0c0.6,0,1-0.4,1-1c0-0.3-0.1-0.5-0.3-0.7l-5.9-8.9c-0.4-0.6-1.3-0.6-1.7,0l-6,9
			c-0.2,0.3-0.2,0.7,0,1S35.6,237,36,237z"/>
		<path fill="#F68802" d="M35.5,239c-3,0-5.5,2.5-5.5,5.5s2.5,5.5,5.5,5.5s5.5-2.5,5.5-5.5S38.5,239,35.5,239z"/>
	</g>
	<g id="model">
		<g>
			<path fill="#F68802" d="M25,250h-9c-0.6,0-1-0.4-1-1v-9c0-0.6,0.4-1,1-1h9c0.6,0,1,0.4,1,1v9C26,249.6,25.6,250,25,250z M17,248
				h7v-7h-7V248z"/>
		</g>
		<g>
			<path fill="#F68802" d="M20,237C20,237,20,237,20,237H8c-0.4,0-0.7-0.2-0.9-0.5s-0.2-0.7,0-1l6-9c0.4-0.6,1.3-0.6,1.7,0l5.9,8.9
				c0.2,0.2,0.3,0.4,0.3,0.7C21,236.6,20.6,237,20,237z M9.9,235h8.3l-4.1-6.2L9.9,235z"/>
		</g>
		<g>
			<path fill="#F68802" d="M7.5,250c-3,0-5.5-2.5-5.5-5.5s2.5-5.5,5.5-5.5s5.5,2.5,5.5,5.5S10.5,250,7.5,250z M7.5,241
				c-1.9,0-3.5,1.6-3.5,3.5s1.6,3.5,3.5,3.5s3.5-1.6,3.5-3.5S9.4,241,7.5,241z"/>
		</g>
	</g>
	<polygon id="pants-on" fill="#F68802" points="47,199 37,199 35,204 35,221 39,221 42,207 45,221 49,221 49,204 	"/>
	<g id="pants">
		<path fill="#F68802" d="M21,221h-4c-0.5,0-0.9-0.3-1-0.8l-2-8.8l-2,8.8c-0.1,0.5-0.5,0.8-1,0.8H7c-0.6,0-1-0.4-1-1v-16
			c0-0.2,0-0.3,0.1-0.4l2-4c0.2-0.3,0.5-0.6,0.9-0.6h10c0.4,0,0.7,0.2,0.9,0.6l2,4c0.1,0.1,0.1,0.3,0.1,0.4v16
			C22,220.6,21.6,221,21,221z M17.8,219H20v-14.8l-1.6-3.2H9.6L8,204.2V219h2.2l2.8-12.2c0.1-0.5,0.5-0.8,1-0.8s0.9,0.3,1,0.8
			L17.8,219z"/>
	</g>
	<g id="decal-on">
		<path fill="#F68802" d="M53,256c0-0.6-0.4-1-1-1H32c-0.6,0-1,0.4-1,1v20c0,0.6,0.4,1,1,1h20c0.6,0,1-0.4,1-1V256z M46.4,271.8
			L42,269l-4.4,2.8l1.7-4.6l-3.3-2.8l4.3,0l1.7-4.6l1.7,4.6l4.3,0l-3.3,2.8L46.4,271.8z"/>
	</g>
	<g id="decal">
		<g>
			<g>
				<path fill="#F68802" d="M24,277h-3c-0.6,0-1-0.4-1-1s0.4-1,1-1h2v-2c0-0.6,0.4-1,1-1s1,0.4,1,1v3C25,276.6,24.6,277,24,277z"/>
			</g>
			<g>
				<path fill="#F68802" d="M16.3,277h-4.7c-0.6,0-1-0.4-1-1s0.4-1,1-1h4.7c0.6,0,1,0.4,1,1S16.9,277,16.3,277z"/>
			</g>
			<g>
				<path fill="#F68802" d="M7,277H4c-0.6,0-1-0.4-1-1v-3c0-0.6,0.4-1,1-1s1,0.4,1,1v2h2c0.6,0,1,0.4,1,1S7.6,277,7,277z"/>
			</g>
			<g>
				<path fill="#F68802" d="M4,269.3c-0.6,0-1-0.4-1-1v-4.7c0-0.6,0.4-1,1-1s1,0.4,1,1v4.7C5,268.9,4.6,269.3,4,269.3z"/>
			</g>
			<g>
				<path fill="#F68802" d="M4,260c-0.6,0-1-0.4-1-1v-3c0-0.6,0.4-1,1-1h3c0.6,0,1,0.4,1,1s-0.4,1-1,1H5v2C5,259.6,4.6,260,4,260z"
					/>
			</g>
			<g>
				<path fill="#F68802" d="M16.3,257h-4.7c-0.6,0-1-0.4-1-1s0.4-1,1-1h4.7c0.6,0,1,0.4,1,1S16.9,257,16.3,257z"/>
			</g>
			<g>
				<path fill="#F68802" d="M24,260c-0.6,0-1-0.4-1-1v-2h-2c-0.6,0-1-0.4-1-1s0.4-1,1-1h3c0.6,0,1,0.4,1,1v3
					C25,259.6,24.6,260,24,260z"/>
			</g>
			<g>
				<path fill="#F68802" d="M24,269.3c-0.6,0-1-0.4-1-1v-4.7c0-0.6,0.4-1,1-1s1,0.4,1,1v4.7C25,268.9,24.6,269.3,24,269.3z"/>
			</g>
		</g>
		<g>
			<polygon fill="#F68802" points="14,259.8 15.7,264.3 20,264.4 16.7,267.2 18.4,271.8 14,269 9.6,271.8 11.3,267.2 8,264.4 
				12.3,264.3 			"/>
		</g>
	</g>
	<g id="tshirt-on">
		<path fill="#F68802" d="M51,173l-5-2c0,0-1.4,2-4,2s-4-2-4-2l-5,2l-3,6l4,3v11h16v-11l4-3L51,173z M39,189h-2c-0.6,0-1-0.4-1-1v-2
			c0-0.6,0.4-1,1-1s1,0.4,1,1v1h1c0.6,0,1,0.4,1,1S39.6,189,39,189z M36,183c0-0.3,0.1-0.5,0.3-0.7c0.4-0.4,1-0.4,1.4,0
			c0.2,0.2,0.3,0.5,0.3,0.7s-0.1,0.5-0.3,0.7c-0.2,0.2-0.5,0.3-0.7,0.3s-0.5-0.1-0.7-0.3C36.1,183.5,36,183.3,36,183z M39,179h-1v1
			c0,0.6-0.4,1-1,1s-1-0.4-1-1v-2c0-0.6,0.4-1,1-1h2c0.6,0,1,0.4,1,1S39.6,179,39,179z M42.7,188.7c-0.2,0.2-0.5,0.3-0.7,0.3
			s-0.5-0.1-0.7-0.3c-0.2-0.2-0.3-0.4-0.3-0.7c0-0.3,0.1-0.5,0.3-0.7c0.4-0.4,1-0.4,1.4,0c0.2,0.2,0.3,0.4,0.3,0.7
			C43,188.3,42.9,188.5,42.7,188.7z M42.7,178.7c-0.2,0.2-0.5,0.3-0.7,0.3s-0.5-0.1-0.7-0.3c-0.2-0.2-0.3-0.5-0.3-0.7
			c0-0.3,0.1-0.5,0.3-0.7c0.4-0.4,1-0.4,1.4,0c0.2,0.2,0.3,0.4,0.3,0.7C43,178.3,42.9,178.5,42.7,178.7z M48,188c0,0.6-0.4,1-1,1h-2
			c-0.6,0-1-0.4-1-1s0.4-1,1-1h1v-1c0-0.6,0.4-1,1-1s1,0.4,1,1V188z M47.7,183.7c-0.2,0.2-0.5,0.3-0.7,0.3s-0.5-0.1-0.7-0.3
			c-0.2-0.2-0.3-0.5-0.3-0.7c0-0.3,0.1-0.5,0.3-0.7c0.4-0.4,1-0.4,1.4,0c0.2,0.2,0.3,0.5,0.3,0.7S47.9,183.5,47.7,183.7z M48,180
			c0,0.6-0.4,1-1,1s-1-0.4-1-1v-1h-1c-0.6,0-1-0.4-1-1s0.4-1,1-1h2c0.6,0,1,0.4,1,1V180z"/>
	</g>
	<g id="tshirt">
		<g>
			<path fill="#F68802" d="M22,193H6c-0.6,0-1-0.4-1-1v-10.5l-2.6-1.7c-0.4-0.3-0.6-0.8-0.3-1.3l3-6c0.1-0.3,0.4-0.5,0.7-0.5l4-1
				c0.4-0.1,0.8,0.1,1.1,0.4c0,0.1,1.1,1.6,3.2,1.6s3.1-1.5,3.2-1.6c0.2-0.3,0.7-0.5,1.1-0.4l4,1c0.3,0.1,0.5,0.3,0.7,0.5l3,6
				c0.2,0.5,0.1,1-0.3,1.3l-2.6,1.7V192C23,192.6,22.6,193,22,193z M7,191h14v-10c0-0.3,0.2-0.6,0.4-0.8l2.3-1.5l-2.4-4.8l-3-0.7
				c-0.7,0.7-2.2,1.9-4.4,1.9s-3.7-1.2-4.4-1.9l-3,0.7l-2.4,4.8l2.3,1.5c0.3,0.2,0.4,0.5,0.4,0.8V191z"/>
		</g>
		<g>
			<path fill="#F68802" d="M9,181c-0.6,0-1-0.4-1-1v-2c0-0.6,0.4-1,1-1h2c0.6,0,1,0.4,1,1s-0.4,1-1,1h-1v1C10,180.6,9.6,181,9,181z"
				/>
		</g>
		<g>
			<path fill="#F68802" d="M19,181c-0.6,0-1-0.4-1-1v-1h-1c-0.6,0-1-0.4-1-1s0.4-1,1-1h2c0.6,0,1,0.4,1,1v2
				C20,180.6,19.6,181,19,181z"/>
		</g>
		<g>
			<path fill="#F68802" d="M11,189H9c-0.6,0-1-0.4-1-1v-2c0-0.6,0.4-1,1-1s1,0.4,1,1v1h1c0.6,0,1,0.4,1,1S11.6,189,11,189z"/>
		</g>
		<g>
			<path fill="#F68802" d="M19,189h-2c-0.6,0-1-0.4-1-1s0.4-1,1-1h1v-1c0-0.6,0.4-1,1-1s1,0.4,1,1v2C20,188.6,19.6,189,19,189z"/>
		</g>
		<g>
			<path fill="#F68802" d="M14,189c-0.3,0-0.5-0.1-0.7-0.3c-0.2-0.2-0.3-0.5-0.3-0.7s0.1-0.5,0.3-0.7c0.4-0.4,1-0.4,1.4,0
				c0.2,0.2,0.3,0.5,0.3,0.7s-0.1,0.5-0.3,0.7C14.5,188.9,14.3,189,14,189z"/>
		</g>
		<g>
			<path fill="#F68802" d="M14,179c-0.3,0-0.5-0.1-0.7-0.3c-0.2-0.2-0.3-0.5-0.3-0.7s0.1-0.5,0.3-0.7c0.4-0.4,1-0.4,1.4,0
				c0.2,0.2,0.3,0.4,0.3,0.7c0,0.3-0.1,0.5-0.3,0.7C14.5,178.9,14.3,179,14,179z"/>
		</g>
		<g>
			<path fill="#F68802" d="M9,184c-0.3,0-0.5-0.1-0.7-0.3C8.1,183.5,8,183.3,8,183s0.1-0.5,0.3-0.7c0.4-0.4,1.1-0.4,1.4,0
				c0.2,0.2,0.3,0.4,0.3,0.7c0,0.3-0.1,0.5-0.3,0.7C9.5,183.9,9.3,184,9,184z"/>
		</g>
		<g>
			<path fill="#F68802" d="M19,184c-0.3,0-0.5-0.1-0.7-0.3c-0.2-0.2-0.3-0.5-0.3-0.7s0.1-0.5,0.3-0.7c0.4-0.4,1-0.4,1.4,0
				c0.2,0.2,0.3,0.5,0.3,0.7s-0.1,0.5-0.3,0.7C19.5,183.9,19.3,184,19,184z"/>
		</g>
	</g>
	<g id="shirt-on">
		<path fill="#F68802" d="M51.2,146.7l-1.8-0.6c-0.3-0.1-0.5-0.3-0.6-0.6l-0.6-1.8c-0.1-0.4-0.5-0.7-0.9-0.7H42h-5.3
			c-0.4,0-0.8,0.3-0.9,0.7l-0.6,1.8c-0.1,0.3-0.3,0.5-0.6,0.6l-1.8,0.6c-0.4,0.1-0.7,0.6-0.7,1.1l1.8,15.3c0.1,0.5,0.5,0.9,1,0.9
			h14.2c0.5,0,0.9-0.4,1-0.9l1.8-15.3C52,147.3,51.7,146.9,51.2,146.7z M42,162c-0.6,0-1-0.4-1-1s0.4-1,1-1s1,0.4,1,1
			S42.6,162,42,162z M42,158c-0.6,0-1-0.4-1-1s0.4-1,1-1s1,0.4,1,1S42.6,158,42,158z M42,154c-0.6,0-1-0.4-1-1s0.4-1,1-1s1,0.4,1,1
			S42.6,154,42,154z M48.3,147.4l-3,2c-0.1,0.1-0.2,0.1-0.3,0.1s-0.2,0-0.3-0.1l-2.7-1.8l-2.7,1.8c-0.2,0.1-0.4,0.1-0.6,0l-3-2
			c-0.2-0.2-0.3-0.5-0.1-0.7c0.2-0.2,0.5-0.3,0.7-0.1l2.7,1.8l2.7-1.8c0.2-0.1,0.4-0.1,0.6,0l2.7,1.8l2.7-1.8
			c0.2-0.2,0.5-0.1,0.7,0.1C48.6,147,48.5,147.3,48.3,147.4z"/>
	</g>
	<g id="shirt">
		<g>
			<path fill="#F68802" d="M22,165H6c-0.5,0-0.9-0.4-1-0.9l-2-16c-0.1-0.5,0.2-0.9,0.7-1.1l2.5-0.8l0.8-2.5c0.1-0.3,0.4-0.6,0.7-0.6
				c0.3-0.1,0.7,0,0.9,0.2l5.4,4.5l5.4-4.5c0.3-0.2,0.6-0.3,0.9-0.2c0.3,0.1,0.6,0.3,0.7,0.6l0.8,2.5l2.5,0.8
				c0.5,0.2,0.7,0.6,0.7,1.1l-2,16C22.9,164.6,22.5,165,22,165z M6.9,163h14.2l1.8-14.3l-2.2-0.7c-0.3-0.1-0.5-0.3-0.6-0.6l-0.5-1.6
				l-4.9,4.1c-0.4,0.3-0.9,0.3-1.3,0l-4.9-4.1l-0.5,1.6c-0.1,0.3-0.3,0.5-0.6,0.6l-2.2,0.7L6.9,163z"/>
		</g>
		<g>
			<path fill="#F68802" d="M14,154c-0.6,0-1,0.4-1,1s0.4,1,1,1s1-0.4,1-1S14.6,154,14,154L14,154z"/>
		</g>
		<g>
			<path fill="#F68802" d="M14,158c-0.6,0-1,0.4-1,1s0.4,1,1,1s1-0.4,1-1S14.6,158,14,158L14,158z"/>
		</g>
		<g>
			<path fill="#F68802" d="M14,162c-0.6,0-1,0.4-1,1s0.4,1,1,1s1-0.4,1-1S14.6,162,14,162L14,162z"/>
		</g>
		<g>
			<path fill="#F68802" d="M17,153c-0.3,0-0.5-0.1-0.7-0.3l-2.3-2.3l-2.3,2.3c-0.2,0.2-0.5,0.3-0.8,0.3c-0.3,0-0.5-0.2-0.7-0.4l-4-5
				c-0.3-0.4-0.3-1.1,0.2-1.4c0.4-0.3,1.1-0.3,1.4,0.2l3.3,4.1l2.2-2.2c0.4-0.4,1-0.4,1.4,0l2.2,2.2l3.3-4.1c0.3-0.4,1-0.5,1.4-0.2
				c0.4,0.3,0.5,1,0.2,1.4l-4,5C17.6,152.8,17.3,153,17,153C17,153,17,153,17,153z"/>
		</g>
		<g>
			<path fill="#F68802" d="M20,145H8c-0.6,0-1-0.4-1-1s0.4-1,1-1h12c0.6,0,1,0.4,1,1S20.6,145,20,145z"/>
		</g>
	</g>
	<g id="personalserver-on">
		<path fill="#F68802" d="M49,115H35c-0.6,0-1,0.4-1,1v20c0,0.6,0.4,1,1,1h14c0.6,0,1-0.4,1-1v-20C50,115.4,49.6,115,49,115z
			 M38.5,118c0.8,0,1.5,0.7,1.5,1.5s-0.7,1.5-1.5,1.5s-1.5-0.7-1.5-1.5S37.7,118,38.5,118z M47,133H37c-0.6,0-1-0.4-1-1s0.4-1,1-1
			h10c0.6,0,1,0.4,1,1S47.6,133,47,133z M47,129H37c-0.6,0-1-0.4-1-1s0.4-1,1-1h10c0.6,0,1,0.4,1,1S47.6,129,47,129z"/>
	</g>
	<g id="personalserver">
		<g>
			<path fill="#F68802" d="M21,137H7c-0.6,0-1-0.4-1-1v-20c0-0.6,0.4-1,1-1h14c0.6,0,1,0.4,1,1v20C22,136.6,21.6,137,21,137z M8,135
				h12v-18H8V135z"/>
		</g>
		<g>
			<path fill="#F68802" d="M10.5,118c-0.8,0-1.5,0.7-1.5,1.5s0.7,1.5,1.5,1.5s1.5-0.7,1.5-1.5S11.3,118,10.5,118L10.5,118z"/>
		</g>
		<g>
			<path fill="#F68802" d="M21,129H7c-0.6,0-1-0.4-1-1s0.4-1,1-1h14c0.6,0,1,0.4,1,1S21.6,129,21,129z"/>
		</g>
		<g>
			<path fill="#F68802" d="M21,133H7c-0.6,0-1-0.4-1-1s0.4-1,1-1h14c0.6,0,1,0.4,1,1S21.6,133,21,133z"/>
		</g>
	</g>
	<g id="place">
		<path fill="#F68802" d="M52,106h-2v-2h1.7c0.9,0,1.5-1,1-1.8L50.8,99h0.8c0.9,0,1.5-1,1-1.7L50,92.6c-0.4-0.8-1.6-0.8-2,0
			l-2.7,4.7c-0.4,0.8,0.1,1.7,1,1.7h0.8l-1.9,3.2c-0.4,0.8,0.1,1.8,1,1.8H48v2h-4V89c0-0.6-0.4-1-1-1H33c-0.6,0-1,0.4-1,1v17
			c-0.6,0-1,0.4-1,1s0.4,1,1,1h20c0.6,0,1-0.4,1-1S52.6,106,52,106z M40,99h-4c-0.6,0-1-0.4-1-1s0.4-1,1-1h4c0.6,0,1,0.4,1,1
			S40.6,99,40,99z M40,96h-4c-0.6,0-1-0.4-1-1s0.4-1,1-1h4c0.6,0,1,0.4,1,1S40.6,96,40,96z M40,93h-4c-0.6,0-1-0.4-1-1s0.4-1,1-1h4
			c0.6,0,1,0.4,1,1S40.6,93,40,93z"/>
	</g>
	<g id="place_1_">
		<g>
			<path fill="#F68802" d="M24,99C24,99,24,99,24,99h-6c-0.4,0-0.7-0.2-0.9-0.5s-0.2-0.7,0-1l3-5c0.4-0.6,1.4-0.6,1.7,0l2.9,4.9
				c0.2,0.2,0.3,0.4,0.3,0.7C25,98.6,24.6,99,24,99z M19.8,97h2.5L21,94.9L19.8,97z"/>
		</g>
		<g>
			<path fill="#F68802" d="M24,104C24,104,24,104,24,104h-6c-0.4,0-0.7-0.2-0.9-0.5s-0.2-0.7,0-1l3-5c0.4-0.6,1.4-0.6,1.7,0l2.9,4.9
				c0.2,0.2,0.3,0.4,0.3,0.7C25,103.6,24.6,104,24,104z M19.8,102h2.5L21,99.9L19.8,102z"/>
		</g>
		<g>
			<path fill="#F68802" d="M21,107c-0.6,0-1-0.4-1-1v-3c0-0.6,0.4-1,1-1s1,0.4,1,1v3C22,106.6,21.6,107,21,107z"/>
		</g>
		<g>
			<path fill="#F68802" d="M24,108H4c-0.6,0-1-0.4-1-1s0.4-1,1-1h20c0.6,0,1,0.4,1,1S24.6,108,24,108z"/>
		</g>
		<g>
			<path fill="#F68802" d="M15,108H5c-0.6,0-1-0.4-1-1V89c0-0.6,0.4-1,1-1h10c0.6,0,1,0.4,1,1v18C16,107.6,15.6,108,15,108z M6,106
				h8V90H6V106z"/>
		</g>
		<g>
			<path fill="#F68802" d="M12,93H8c-0.6,0-1-0.4-1-1s0.4-1,1-1h4c0.6,0,1,0.4,1,1S12.6,93,12,93z"/>
		</g>
		<g>
			<path fill="#F68802" d="M12,96H8c-0.6,0-1-0.4-1-1s0.4-1,1-1h4c0.6,0,1,0.4,1,1S12.6,96,12,96z"/>
		</g>
		<g>
			<path fill="#F68802" d="M12,99H8c-0.6,0-1-0.4-1-1s0.4-1,1-1h4c0.6,0,1,0.4,1,1S12.6,99,12,99z"/>
		</g>
	</g>
	<g>
		<circle fill="#F68802" cx="39" cy="62" r="4"/>
		<path fill="#F68802" d="M43,67H31c-0.5,0-1,0.5-1,1v1c0,0.5,0.4,1.1,1,1.2l3,0.6c0.5,0.1,0.9,0.6,0.8,1.2l-1.6,9
			c-0.1,0.5,0.3,1,0.8,1h1c0.5,0,1.2-0.4,1.5-0.9l7.1-13.2C43.8,67.4,43.5,67,43,67z"/>
		<path fill="#F68802" d="M53.8,61.4C53.6,61.2,53.3,61,53,61h-2c-0.4,0-0.7,0.2-0.9,0.5l-6,10C44,71.7,44,72,44,72.3
			c0.1,0.3,0.3,0.5,0.5,0.6l4,2C48.7,75,48.8,75,49,75c0.1,0,0.3,0,0.4-0.1c0.3-0.1,0.5-0.3,0.6-0.6l4-12C54.1,62,54,61.7,53.8,61.4
			z"/>
		<path fill="#F68802" d="M45,75c-2.7,0-3.2,1.5-3.7,2.9c-0.3,0.7-0.6,1.6-1.2,2.6c-0.2,0.3-0.2,0.7,0,1c0.2,0.3,0.5,0.5,0.9,0.5
			c1.7,0,7,0,7-4C48,76.4,46.6,75,45,75z"/>
	</g>
	<g>
		<path fill="#F68802" d="M11,66c2.2,0,4-1.8,4-4s-1.8-4-4-4s-4,1.8-4,4S8.8,66,11,66z M11,60c1.1,0,2,0.9,2,2s-0.9,2-2,2
			s-2-0.9-2-2S9.9,60,11,60z"/>
		<path fill="#F68802" d="M11.4,74.1c-0.5-0.2-1.1,0-1.3,0.4L7.4,80H6.2L8,72.2c0.1-0.5-0.2-1.1-0.7-1.2L4,70.2V69h10
			c0.6,0,1-0.4,1-1s-0.4-1-1-1H3c-0.6,0-1,0.4-1,1v3c0,0.5,0.3,0.9,0.8,1l3.1,0.8l-1.8,8c-0.1,0.3,0,0.6,0.2,0.8
			C4.4,81.9,4.7,82,5,82h3c0.4,0,0.7-0.2,0.9-0.6l3-6C12.1,75,11.9,74.4,11.4,74.1z"/>
		<path fill="#F68802" d="M25.8,61.4C25.6,61.2,25.3,61,25,61h-2c-0.3,0-0.6,0.2-0.8,0.4l-7,10C15,71.7,15,72,15,72.3
			c0.1,0.3,0.3,0.5,0.6,0.6l5,2c0.1,0,0.2,0.1,0.4,0.1c0.1,0,0.3,0,0.4-0.1c0.2-0.1,0.4-0.3,0.5-0.6l4-12C26.1,62,26,61.7,25.8,61.4
			z M20.4,72.7l-2.8-1.1l6-8.5h0.1L20.4,72.7z"/>
		<path fill="#F68802" d="M16,74c-2.6,0-3.2,1.9-3.6,3.5c-0.3,0.9-0.6,1.9-1.2,3c-0.2,0.3-0.2,0.7,0,1c0.2,0.3,0.5,0.5,0.9,0.5
			c7,0,8-2.5,8-4C20,75.4,17.7,74,16,74z M13.7,79.9c0.3-0.7,0.5-1.3,0.6-1.9C14.8,76.3,15,76,16,76c0.5,0,2,0.5,2,2
			C18,79,16.3,79.7,13.7,79.9z"/>
	</g>
	<g id="develop-on">
		<g>
			<path fill="#F68802" d="M52,38c-0.6,0-1-0.4-1-1v-4h-4c-0.6,0-1-0.4-1-1s0.4-1,1-1h5c0.6,0,1,0.4,1,1v5C53,37.6,52.6,38,52,38z"
				/>
		</g>
		<g>
			<path fill="#F68802" d="M37,53h-5c-0.6,0-1-0.4-1-1v-5c0-0.6,0.4-1,1-1s1,0.4,1,1v4h4c0.6,0,1,0.4,1,1S37.6,53,37,53z"/>
		</g>
		<g>
			<path fill="#F68802" d="M34,31h4.6c0.3,0,0.5,0.1,0.7,0.3l2.4,2.4c0.2,0.2,0.3,0.4,0.3,0.7v4.2c0,0.3,0.1,0.5,0.3,0.7l2.4,2.4
				c0.2,0.2,0.4,0.3,0.7,0.3h4.2c0.3,0,0.5,0.1,0.7,0.3l2.4,2.4c0.2,0.2,0.3,0.4,0.3,0.7V50l-3.7-3.7c-0.2-0.2-0.4-0.3-0.7-0.3H47
				c-0.6,0-1,0.4-1,1v1.6c0,0.3,0.1,0.5,0.3,0.7L50,53h-4.6c-0.3,0-0.5-0.1-0.7-0.3l-2.4-2.4c-0.2-0.2-0.3-0.4-0.3-0.7v-4.2
				c0-0.3-0.1-0.5-0.3-0.7l-2.4-2.4c-0.2-0.2-0.4-0.3-0.7-0.3h-4.2c-0.3,0-0.5-0.1-0.7-0.3l-2.4-2.4c-0.2-0.2-0.3-0.4-0.3-0.7V34
				l3.7,3.7c0.2,0.2,0.4,0.3,0.7,0.3H37c0.6,0,1-0.4,1-1v-1.6c0-0.3-0.1-0.5-0.3-0.7L34,31z"/>
		</g>
	</g>
	<g id="develop">
		<g>
			<path fill="#F68802" d="M24,38c-0.6,0-1-0.4-1-1v-4h-4c-0.6,0-1-0.4-1-1s0.4-1,1-1h5c0.6,0,1,0.4,1,1v5C25,37.6,24.6,38,24,38z"
				/>
		</g>
		<g>
			<path fill="#F68802" d="M9,53H4c-0.6,0-1-0.4-1-1v-5c0-0.6,0.4-1,1-1s1,0.4,1,1v4h4c0.6,0,1,0.4,1,1S9.6,53,9,53z"/>
		</g>
		<g>
			<path fill="#F68802" d="M21,53C21,53,21,53,21,53h-5c-0.3,0-0.5-0.1-0.7-0.3l-2-2C13.1,50.5,13,50.3,13,50v-4.6L10.6,43H6
				c-0.3,0-0.5-0.1-0.7-0.3l-2-2C3.1,40.5,3,40.3,3,40v-5c0-0.4,0.2-0.8,0.6-0.9s0.8-0.1,1.1,0.2L7.4,37H9v-1.6l-2.7-2.7
				C6,32.4,5.9,32,6.1,31.6C6.2,31.2,6.6,31,7,31h5c0.3,0,0.5,0.1,0.7,0.3l2,2c0.2,0.2,0.3,0.4,0.3,0.7v4.6l2.4,2.4H22
				c0.3,0,0.5,0.1,0.7,0.3l2,2c0.2,0.2,0.3,0.4,0.3,0.7v5c0,0.4-0.2,0.8-0.6,0.9c-0.4,0.2-0.8,0.1-1.1-0.2L20.6,47H19v1.6l2.6,2.6
				c0.3,0.2,0.4,0.5,0.4,0.8C22,52.6,21.6,53,21,53z M16.4,51h2.2l-1.3-1.3C17.1,49.5,17,49.3,17,49v-3c0-0.6,0.4-1,1-1h3
				c0.3,0,0.5,0.1,0.7,0.3l1.3,1.3v-2.2L21.6,43H17c-0.3,0-0.5-0.1-0.7-0.3l-3-3C13.1,39.5,13,39.3,13,39v-4.6L11.6,33H9.4l1.3,1.3
				c0.2,0.2,0.3,0.4,0.3,0.7v3c0,0.6-0.4,1-1,1H7c-0.3,0-0.5-0.1-0.7-0.3L5,37.4v2.2L6.4,41H11c0.3,0,0.5,0.1,0.7,0.3l3,3
				c0.2,0.2,0.3,0.4,0.3,0.7v4.6L16.4,51z"/>
		</g>
	</g>
	<g id="profile-on">
		<circle fill="#F68802" cx="42" cy="8" r="6"/>
		<path fill="#F68802" d="M42,16c0,0,6,0,7,1c0.8,0.8,1.6,4.6,1.9,6.2c0.1,0.5-0.2,0.9-0.6,1.1C48.9,24.9,45.7,26,42,26
			s-6.9-1.1-8.3-1.7c-0.4-0.2-0.7-0.6-0.6-1.1c0.3-1.7,1.1-5.4,1.9-6.2C36,16,42,16,42,16z"/>
	</g>
	<g id="profile">
		<g>
			<path fill="#F68802" d="M14,14c-3.3,0-6-2.7-6-6s2.7-6,6-6s6,2.7,6,6S17.3,14,14,14z M14,4c-2.2,0-4,1.8-4,4s1.8,4,4,4s4-1.8,4-4
				S16.2,4,14,4z"/>
		</g>
		<g>
			<path fill="#F68802" d="M14,26c-5.2,0-8.4-2.1-8.5-2.2c-0.3-0.2-0.5-0.6-0.4-1c0.2-1.2,1.1-5.4,2.3-6.5C8.5,15.1,12.4,15,14,15
				c1.6,0,5.5,0.1,6.7,1.3c1.1,1.1,2,5.3,2.3,6.5c0.1,0.4-0.1,0.8-0.4,1C22.4,23.9,19.2,26,14,26z M7.1,22.5C8.2,23,10.6,24,14,24
				c3.4,0,5.8-1,6.9-1.5c-0.5-2.1-1.2-4.3-1.6-4.8C18.9,17.3,16.4,17,14,17c-2.4,0-4.9,0.3-5.3,0.7C8.3,18.1,7.6,20.4,7.1,22.5z"/>
		</g>
	</g>
</g>
<g id="games">
</g>
<g id="Social_and_Interaction">
</g>
<g id="Navigation">
</g>
<g id="Friends_Status">
</g>
</svg>
