<?xml version="1.0" encoding="utf-8"?>
<!-- Generator: Adobe Illustrator 19.1.0, SVG Export Plug-In . SVG Version: 6.00 Build 0)  -->
<!DOCTYPE svg PUBLIC "-//W3C//DTD SVG 1.1//EN" "http://www.w3.org/Graphics/SVG/1.1/DTD/svg11.dtd">
<svg version="1.1" id="negative" xmlns="http://www.w3.org/2000/svg" xmlns:xlink="http://www.w3.org/1999/xlink" x="0px" y="0px"
	 width="56px" height="140px" viewBox="0 0 56 140" style="enable-background:new 0 0 56 140;" xml:space="preserve">
<style type="text/css">
	.st0{fill:none;stroke:#D86868;stroke-width:2;stroke-linecap:round;stroke-linejoin:round;stroke-miterlimit:10;}
	.st1{fill:#D86868;}
	.st2{fill:#D86868;stroke:#D86868;stroke-width:2;stroke-linecap:round;stroke-linejoin:round;stroke-miterlimit:10;}
	.st3{fill:none;stroke:#FFFFFF;stroke-width:2;stroke-linecap:round;stroke-linejoin:round;stroke-miterlimit:10;}
	.st4{fill:#CCCCCC;}
</style>
<g id="lock-on">
	<path class="st0" d="M36,125v-4.4c0-3.1,2.9-5.6,6-5.6s6,2.5,6,5.6v4.4"/>
	<g>
		<path class="st1" d="M51,124H33c-0.6,0-1,0.4-1,1v12c0,0.6,0.4,1,1,1h18c0.6,0,1-0.4,1-1v-12C52,124.4,51.6,124,51,124z
			 M43.8,130.9L43,134h-2l-0.8-3.1c-0.1-0.3-0.2-0.6-0.2-0.9c0-1.1,0.9-2,2-2s2,0.9,2,2C44,130.3,43.9,130.6,43.8,130.9z"/>
	</g>
</g>
<g id="lock">
	<rect x="5" y="125" class="st0" width="18" height="12"/>
	<path class="st0" d="M8,125v-4.4c0-3.1,2.9-5.6,6-5.6s6,2.5,6,5.6v4.4"/>
	<path class="st0" d="M15.4,131.4c0.8-0.8,0.8-2,0-2.8c-0.8-0.8-2-0.8-2.8,0c-0.8,0.8-0.8,2,0,2.8L13,134h2L15.4,131.4z"/>
</g>
<g id="warning-on">
	<polygon id="XMLID_5_" class="st2" points="42,89 31,107 53,107 	"/>
	<g id="XMLID_2_">
		<line id="XMLID_4_" class="st3" x1="42" y1="96" x2="42" y2="100"/>
		<line id="XMLID_3_" class="st3" x1="42" y1="103" x2="42" y2="104"/>
	</g>
</g>
<g id="warning">
	<polygon id="XMLID_9_" class="st0" points="14,89 3,107 25,107 	"/>
	<g id="XMLID_6_">
		<line id="XMLID_8_" class="st0" x1="14" y1="96" x2="14" y2="100"/>
		<line id="XMLID_7_" class="st0" x1="14" y1="103" x2="14" y2="104"/>
	</g>
</g>
<g id="report-on_1_">
	<g>
		<path class="st1" d="M34,81c-0.6,0-1-0.4-1-1V60c0-0.6,0.4-1,1-1s1,0.4,1,1v20C35,80.6,34.6,81,34,81z"/>
	</g>
	<polyline id="report-on" class="st1" points="34,59 50,59 48,65 50,71 34,71 	"/>
</g>
<g id="report">
	<g>
		<path class="st4" d="M6,81c-0.6,0-1-0.4-1-1V60c0-0.6,0.4-1,1-1s1,0.4,1,1v20C7,80.6,6.6,81,6,81z"/>
	</g>
	<g>
		<path class="st4" d="M22,71H6c-0.6,0-1-0.4-1-1s0.4-1,1-1h14.5L19,65.4c-0.1-0.2-0.1-0.5,0-0.7l1.5-3.6H6c-0.6,0-1-0.4-1-1
			s0.4-1,1-1h16c0.3,0,0.6,0.2,0.8,0.4c0.2,0.3,0.2,0.6,0.1,0.9L21.1,65l1.9,4.6c0.1,0.3,0.1,0.7-0.1,0.9C22.6,70.8,22.3,71,22,71z"
			/>
	</g>
</g>
<g id="remove-on">
	<path class="st1" d="M42,31c-6.1,0-11,4.9-11,11s4.9,11,11,11s11-4.9,11-11S48.1,31,42,31z M47,43H37c-0.6,0-1-0.4-1-1s0.4-1,1-1
		h10c0.6,0,1,0.4,1,1S47.6,43,47,43z"/>
</g>
<g id="remove">
	<g>
		<path class="st1" d="M14,53C7.9,53,3,48.1,3,42s4.9-11,11-11s11,4.9,11,11S20.1,53,14,53z M14,33c-5,0-9,4-9,9s4,9,9,9s9-4,9-9
			S19,33,14,33z"/>
	</g>
	<g>
		<path class="st1" d="M19,43H9c-0.6,0-1-0.4-1-1s0.4-1,1-1h10c0.6,0,1,0.4,1,1S19.6,43,19,43z"/>
	</g>
</g>
<g id="alert-on">
	<path class="st1" d="M42,3c-6.1,0-11,4.9-11,11s4.9,11,11,11s11-4.9,11-11S48.1,3,42,3z M43,19c0,0.6-0.4,1-1,1s-1-0.4-1-1v-1
		c0-0.6,0.4-1,1-1s1,0.4,1,1V19z M43,15c0,0.6-0.4,1-1,1s-1-0.4-1-1V9c0-0.6,0.4-1,1-1s1,0.4,1,1V15z"/>
</g>
<g id="alert">
	<g>
		<path class="st1" d="M14,25C7.9,25,3,20.1,3,14S7.9,3,14,3s11,4.9,11,11S20.1,25,14,25z M14,5c-5,0-9,4-9,9s4,9,9,9s9-4,9-9
			S19,5,14,5z"/>
	</g>
	<g>
		<path class="st1" d="M14,16c-0.6,0-1-0.4-1-1V9c0-0.6,0.4-1,1-1s1,0.4,1,1v6C15,15.6,14.6,16,14,16z"/>
	</g>
	<g>
		<path class="st1" d="M14,20c-0.6,0-1-0.4-1-1v-1c0-0.6,0.4-1,1-1s1,0.4,1,1v1C15,19.6,14.6,20,14,20z"/>
	</g>
</g>
</svg>
