<?xml version="1.0" encoding="utf-8" ?>
<!-- Generator: Adobe Illustrator 18.0.0, SVG Export Plug-In . SVG Version: 6.00 Build 0)  -->
<!DOCTYPE SVG PUBLIC "-//W3C//DTD SVG 1.1//EN" "http://www.w3.org/Graphics/SVG/1.1/DTD/svg11.dtd">
<svg version="1.1" xmlns="http://www.w3.org/2000/svg" xmlns:xlink="http://www.w3.org/1999/xlink" x="0px" y="0px" width="56px"
     height="252px" viewBox="0 0 56 252" enable-background="new 0 0 56 252" xml:space="preserve">
<g id="label">
</g>
<g id="BC">
</g>
<g id="brand">
</g>
<g id="generic">
</g>
<g id="negative">
</g>
<g id="creation">
</g>
<g id="games">
</g>
<g id="Social_and_Interaction">
<path id="chat-on" fill="#00A2FF" d="M54,200v14c0,0.6-0.4,1-1,1h-8.4l-4.8,5.6c-0.2,0.2-0.5,0.4-0.8,0.4c-0.1,0-0.2,0-0.3-0.1
		c-0.4-0.1-0.7-0.5-0.7-0.9v-5h-7c-0.6,0-1-0.4-1-1v-14c0-0.6,0.4-1,1-1h22C53.6,199,54,199.4,54,200z M38,207c0-1.1-0.9-2-2-2
		s-2,0.9-2,2s0.9,2,2,2S38,208.1,38,207z M44,207c0-1.1-0.9-2-2-2s-2,0.9-2,2s0.9,2,2,2S44,208.1,44,207z M50,207c0-1.1-0.9-2-2-2
		s-2,0.9-2,2s0.9,2,2,2S50,208.1,50,207z" />
<g id="chat">
<g>
<path fill="#00A2FF" d="M11,221c-0.1,0-0.2,0-0.3-0.1c-0.4-0.1-0.7-0.5-0.7-0.9v-5H3c-0.6,0-1-0.4-1-1v-14c0-0.6,0.4-1,1-1h22
				c0.6,0,1,0.4,1,1v14c0,0.6-0.4,1-1,1h-8.4l-4.8,5.6C11.6,220.9,11.3,221,11,221z M4,213h7c0.6,0,1,0.4,1,1v3.3l3.4-3.9
				c0.2-0.2,0.5-0.4,0.8-0.4H24v-12H4V213z" />
		</g>
<g>
<circle fill="#00A2FF" cx="8" cy="207" r="2" />
		</g>
<g>
<circle fill="#00A2FF" cx="14" cy="207" r="2" />
		</g>
<g>
<circle fill="#00A2FF" cx="20" cy="207" r="2" />
		</g>
	</g>
<g id="trade-on">
<path fill="#00A2FF" d="M53.3,179.3l-8.6-8.6c-0.4-0.4-0.7-0.3-0.7,0.3v2c0,0.5-0.5,1-1,1h-4c-0.5,0-1.3,0.3-1.7,0.7l-2.6,2.6
			c-0.4,0.4-0.7,1.2-0.7,1.7v3c0,0.5,0.4,0.7,0.8,0.4l2.4-1.8c0.4-0.3,1.2-0.6,1.8-0.6h14C53.5,180,53.7,179.7,53.3,179.3z" />
<path fill="#00A2FF" d="M49.2,181.6l-2.4,1.8c-0.4,0.3-1.2,0.6-1.8,0.6H31c-0.5,0-0.7,0.3-0.3,0.7l8.6,8.6
			c0.4,0.4,0.7,0.3,0.7-0.3v-2c0-0.5,0.5-1,1-1h4c0.5,0,1.3-0.3,1.7-0.7l2.6-2.6c0.4-0.4,0.7-1.2,0.7-1.7v-3
			C50,181.5,49.6,181.3,49.2,181.6z" />
	</g>
<g id="trade">
<g>
<path fill="#00A2FF" d="M6,183c-0.2,0-0.3,0-0.4-0.1C5.2,182.7,5,182.4,5,182v-5c0-0.3,0.1-0.6,0.4-0.8l4-3
				c0.2-0.1,0.4-0.2,0.6-0.2h5v-2c0-0.4,0.2-0.8,0.6-0.9c0.4-0.2,0.8-0.1,1.1,0.2l9,8c0.3,0.3,0.4,0.7,0.3,1.1S25.4,180,25,180H10.3
				l-3.7,2.8C6.4,182.9,6.2,183,6,183z M7,177.5v2.5l2.4-1.8c0.2-0.1,0.4-0.2,0.6-0.2h12.4l-5.4-4.8v0.8c0,0.6-0.4,1-1,1h-5.7
				L7,177.5z" />
		</g>
<g>
<path fill="#00A2FF" d="M12,194c-0.2,0-0.5-0.1-0.7-0.3l-9-8c-0.3-0.3-0.4-0.7-0.3-1.1S2.6,184,3,184h14.7l3.7-2.8
				c0.3-0.2,0.7-0.3,1-0.1c0.3,0.2,0.6,0.5,0.6,0.9v5c0,0.3-0.1,0.6-0.4,0.8l-4,3c-0.2,0.1-0.4,0.2-0.6,0.2h-5v2
				c0,0.4-0.2,0.8-0.6,0.9C12.3,194,12.1,194,12,194z M5.6,186l5.4,4.8V190c0-0.6,0.4-1,1-1h5.7l3.3-2.5V184l-2.4,1.8
				c-0.2,0.1-0.4,0.2-0.6,0.2H5.6z" />
		</g>
	</g>
<path id="blog-on" fill="#00A2FF" d="M51.1,144.4l-12.2,6.1c-0.5,0.2-1.3,0.4-1.9,0.4s-1.4-0.1-2-0.2l-2.1-0.5
		c-0.5-0.1-1,0.2-1,0.8v7c0,0.5,0.4,0.9,1,0.8l2.1-0.5c0.3-0.1,0.6-0.1,1-0.2v2.9c0,0.4,0.2,0.7,0.6,0.9l6,3
		c0.1,0.1,0.3,0.1,0.4,0.1c0.4,0,0.7-0.2,0.9-0.6l1.6-3.2l5.6,2.4c0.5,0.2,0.9-0.1,0.9-0.6v-18C52,144.5,51.6,144.2,51.1,144.4z
		 M42.6,162.7l-4.6-2.3v-2.3c0.3,0.1,0.7,0.2,0.9,0.3l4.7,2L42.6,162.7z" />
<g id="blog">
<g>
<path fill="#00A2FF" d="M23,164c-0.1,0-0.3,0-0.4-0.1L8.8,158H7.2l-1.8,0.9c-0.3,0.2-0.7,0.1-1,0C4.2,158.7,4,158.3,4,158v-7
				c0-0.3,0.2-0.7,0.5-0.9c0.3-0.2,0.7-0.2,1,0l1.8,0.9h1.5l13.8-6.9c0.3-0.2,0.7-0.1,1,0c0.3,0.2,0.5,0.5,0.5,0.9v18
				c0,0.3-0.2,0.6-0.4,0.8C23.4,163.9,23.2,164,23,164z M7,156h2c0.1,0,0.3,0,0.4,0.1l12.6,5.4v-14.9l-12.6,6.3
				C9.3,153,9.2,153,9,153H7c-0.2,0-0.3,0-0.4-0.1L6,152.6v3.8l0.6-0.3C6.7,156,6.8,156,7,156z" />
		</g>
<g>
<path fill="#00A2FF" d="M14,165c-0.1,0-0.3,0-0.4-0.1l-6-3C7.2,161.7,7,161.4,7,161v-3c0-0.6,0.4-1,1-1s1,0.4,1,1v2.4l4.6,2.3
				l1.6-3.1c0.2-0.5,0.8-0.7,1.3-0.4c0.5,0.2,0.7,0.8,0.4,1.3l-2,4C14.7,164.8,14.4,165,14,165z" />
		</g>
	</g>
<g id="forum-on">
<path fill="#00A2FF" d="M49,129v-12c0-0.5-0.5-1-1-1H31c-0.5,0-1,0.5-1,1v12c0,0.5,0.5,1,1,1h3.2l5.1,4.3c0.4,0.4,0.8,0.2,0.8-0.3
			v-4h8C48.5,130,49,129.5,49,129z" />
<path fill="#00A2FF" d="M53,124h-2c-0.5,0-1,0.5-1,1v5c0,0.5-0.5,1-1,1h-6c-0.5,0-1,0.5-1,1s0.5,1,1,1h2v2c0,0.5,0.4,0.8,0.8,0.4
			l3.7-2.4H53c0.5,0,1-0.5,1-1v-7C54,124.5,53.5,124,53,124z" />
	</g>
<g id="forum">
<g>
<path fill="#00A2FF" d="M18,136c-0.1,0-0.3,0-0.4-0.1c-0.4-0.2-0.6-0.5-0.6-0.9v-2h-2c-0.6,0-1-0.4-1-1s0.4-1,1-1h3
				c0.6,0,1,0.4,1,1v0.9l2-1.6c0.2-0.1,0.4-0.2,0.6-0.2H24v-5h-1c-0.6,0-1-0.4-1-1s0.4-1,1-1h2c0.6,0,1,0.4,1,1v7c0,0.6-0.4,1-1,1
				h-3l-3.3,2.8C18.5,135.9,18.2,136,18,136z" />
		</g>
<g>
<path fill="#00A2FF" d="M11,135c-0.3,0-0.5-0.1-0.7-0.3L5.6,130H3c-0.6,0-1-0.4-1-1v-12c0-0.6,0.4-1,1-1h17c0.6,0,1,0.4,1,1v12
				c0,0.6-0.4,1-1,1h-8v4c0,0.4-0.2,0.8-0.6,0.9C11.3,135,11.1,135,11,135z M4,128h2c0.3,0,0.5,0.1,0.7,0.3l3.3,3.3V129
				c0-0.6,0.4-1,1-1h8v-10H4V128z" />
		</g>
	</g>
<g id="group-on">
<path fill="#00A2FF" d="M33.2,104c-0.4-0.1-0.8-0.3-1.1-0.5c0.3-1.4,0.7-2.7,0.9-2.9c0.4-0.3,2.7-1.6,3.2-1.7c0,0,0.1,0,0.1,0
			c0.1,0,0.1,0,0.2-0.1c0.1,0,0.1-0.1,0.2-0.1c0,0,0.1-0.1,0.1-0.1c0,0,0.1-0.1,0.1-0.2c0-0.1,0.1-0.1,0.1-0.2c0-0.1,0-0.1,0-0.2
			c0,0,0-0.1,0-0.1c0,0,0-0.1,0-0.1c0,0,0-0.1,0-0.1c0,0,0-0.1,0-0.1c0-0.1,0-0.1-0.1-0.2c0-0.1-0.1-0.1-0.1-0.2
			c0,0-0.1-0.1-0.1-0.1c0,0-0.1-0.1-0.2-0.1c-0.1,0-0.1-0.1-0.2-0.1c-0.1,0-0.1,0-0.2,0c0,0-0.1,0-0.1,0c-1.1,0-2-0.9-2-2
			c0-0.8,0.5-1.6,1.3-1.9c0.5-0.2,0.8-0.8,0.6-1.3c-0.2-0.5-0.8-0.8-1.3-0.6C33.1,91.8,32,93.3,32,95c0,1.2,0.6,2.3,1.4,3.1
			c-0.9,0.5-1.6,0.9-1.8,1.1c-0.8,0.8-1.3,3.2-1.6,4.6c-0.1,0.4,0.1,0.7,0.3,1c0.1,0.1,1.1,0.9,2.4,1.2c0.1,0,0.1,0,0.2,0
			c0.5,0,0.9-0.3,1-0.8C34.1,104.7,33.7,104.1,33.2,104z" />
<path fill="#00A2FF" d="M54,103.8c-0.3-1.4-0.8-3.9-1.6-4.6c-0.2-0.2-1-0.7-1.8-1.1c0.9-0.7,1.4-1.8,1.4-3.1
			c0-1.7-1.1-3.2-2.7-3.8c-0.5-0.2-1.1,0.1-1.3,0.6c-0.2,0.5,0.1,1.1,0.6,1.3c0.8,0.3,1.3,1,1.3,1.9c0,1.1-0.9,2-2,2
			c0,0-0.1,0-0.1,0c-0.1,0-0.1,0-0.2,0c-0.1,0-0.1,0.1-0.2,0.1c0,0-0.1,0-0.1,0.1c-0.1,0.1-0.1,0.1-0.2,0.2c0,0,0,0.1-0.1,0.1
			c-0.1,0.1-0.1,0.2-0.1,0.3c0,0,0,0,0,0c0,0,0,0,0,0c0,0,0,0.1,0,0.1c0,0.1,0,0.1,0,0.2c0,0,0,0,0,0.1c0,0.1,0.1,0.2,0.1,0.3
			c0,0,0,0,0,0c0.1,0.1,0.1,0.2,0.2,0.2c0,0,0.1,0,0.1,0.1c0.1,0,0.1,0.1,0.2,0.1c0,0,0.1,0,0.1,0c0.5,0.1,2.8,1.3,3.1,1.6
			c0.2,0.3,0.6,1.6,0.9,3c-0.3,0.2-0.7,0.4-1.1,0.5c-0.5,0.1-0.9,0.6-0.8,1.2c0.1,0.5,0.5,0.8,1,0.8c0.1,0,0.1,0,0.2,0
			c1.3-0.3,2.3-1.1,2.4-1.2C53.9,104.5,54,104.2,54,103.8z" />
<circle fill="#00A2FF" cx="42" cy="93" r="5" />
<path fill="#00A2FF" d="M42,100C42,100,42,100,42,100c-0.6,0-5.3,0.3-6,1c-0.6,0.6-0.9,4-1,5.4c0,0.4,0.2,0.8,0.5,0.9
			c1.1,0.6,3.6,1.7,6.4,1.7s5.4-1.1,6.4-1.7c0.3-0.2,0.6-0.5,0.5-0.9c-0.1-1.4-0.4-4.8-1-5.4C47.3,100.3,42.6,100,42,100z" />
	</g>
<g id="group">
<g>
<path fill="#00A2FF" d="M14,98c-2.8,0-5-2.2-5-5s2.2-5,5-5s5,2.2,5,5S16.8,98,14,98z M14,90c-1.7,0-3,1.3-3,3s1.3,3,3,3
				s3-1.3,3-3S15.7,90,14,90z" />
		</g>
<g>
<path fill="#00A2FF" d="M14,109c-4.2,0-6.6-2.2-6.7-2.3c-0.2-0.2-0.3-0.5-0.3-0.8c0.1-1.7,0.4-4.7,1.3-5.7s3.9-1.2,5.7-1.3
				c0,0,0.1,0,0.1,0c1.7,0.1,4.7,0.4,5.7,1.3s1.2,3.9,1.3,5.7c0,0.3-0.1,0.6-0.3,0.8C20.6,106.8,18.2,109,14,109z M9,105.5
				c0.7,0.5,2.4,1.5,5,1.5c2.6,0,4.3-1,5-1.5c-0.1-1.8-0.4-3.5-0.7-3.9c-0.3-0.2-2.4-0.6-4.3-0.7c-1.9,0.1-3.9,0.4-4.3,0.7
				C9.5,102,9.2,103.8,9,105.5z" />
		</g>
<g>
<g>
<path fill="#00A2FF" d="M8,99c-2.2,0-4-1.8-4-4c0-1.7,1.1-3.2,2.7-3.8c0.5-0.2,1.1,0.1,1.3,0.6c0.2,0.5-0.1,1.1-0.6,1.3
					C6.5,93.4,6,94.2,6,95c0,1.1,0.9,2,2,2c0.6,0,1,0.4,1,1S8.6,99,8,99z" />
			</g>
<g>
<path fill="#00A2FF" d="M5,106c-0.1,0-0.1,0-0.2,0c-1.3-0.3-2.3-1.1-2.4-1.2c-0.3-0.2-0.4-0.6-0.3-1c0.3-1.4,0.8-3.9,1.6-4.6
					c0.4-0.4,3.3-2,4.2-2.2c0.5-0.1,1.1,0.3,1.2,0.8S8.7,98.9,8.2,99c-0.5,0.1-2.8,1.3-3.2,1.7c-0.2,0.2-0.6,1.5-0.9,2.9
					c0.3,0.2,0.7,0.4,1.1,0.5c0.5,0.1,0.9,0.6,0.8,1.2C5.9,105.7,5.5,106,5,106z" />
			</g>
<g>
<path fill="#00A2FF" d="M20,99c-0.6,0-1-0.4-1-1s0.4-1,1-1c1.1,0,2-0.9,2-2c0-0.8-0.5-1.6-1.3-1.9c-0.5-0.2-0.8-0.8-0.6-1.3
					c0.2-0.5,0.8-0.8,1.3-0.6c1.6,0.6,2.7,2.1,2.7,3.8C24,97.2,22.2,99,20,99z" />
			</g>
<g>
<path fill="#00A2FF" d="M23,106c-0.5,0-0.9-0.3-1-0.8c-0.1-0.5,0.2-1.1,0.8-1.2c0.4-0.1,0.8-0.3,1.1-0.5c-0.3-1.4-0.7-2.7-0.9-3
					c-0.4-0.3-2.6-1.5-3.1-1.6c-0.5-0.1-0.9-0.6-0.8-1.2c0.1-0.5,0.6-0.9,1.1-0.8c0.9,0.2,3.8,1.8,4.2,2.2c0.8,0.8,1.3,3.2,1.6,4.6
					c0.1,0.4-0.1,0.7-0.3,1c-0.1,0.1-1.1,0.9-2.4,1.2C23.1,106,23.1,106,23,106z" />
			</g>
		</g>
	</g>
<g id="friends-on">
<path fill="#00A2FF" d="M51.7,71.3c-0.2-0.2-1.4-1.2-2.6-1.9c1.2-1.1,1.9-2.7,1.9-4.4c0-2.8-2-5.3-4.8-5.9
			c-0.5-0.1-1.1,0.2-1.2,0.8c-0.1,0.5,0.2,1.1,0.8,1.2c1.9,0.4,3.2,2,3.2,3.9c0,1.6-0.9,3-2.4,3.7c0,0-0.1,0-0.1,0.1
			c-0.1,0-0.1,0.1-0.2,0.1c0,0-0.1,0.1-0.1,0.1c0,0.1-0.1,0.1-0.1,0.2c0,0.1,0,0.1-0.1,0.2c0,0,0,0.1,0,0.1c0,0,0,0,0,0.1
			c0,0.1,0,0.1,0,0.2c0,0.1,0,0.1,0,0.2c0,0,0,0,0,0.1c0,0.1,0.1,0.1,0.1,0.2c0,0,0,0,0,0.1c0.1,0.1,0.2,0.2,0.3,0.2
			c0,0,0.1,0,0.1,0c0.1,0,0.2,0.1,0.3,0.1c0,0,0,0,0.1,0c0.8,0.1,2.8,1.6,3.4,2.1c0.4,0.4,1.2,2.8,1.6,5c-0.4,0.4-1.1,1-2.2,1.3
			c-0.5,0.2-0.8,0.7-0.7,1.2c0.1,0.4,0.5,0.7,1,0.7c0.1,0,0.2,0,0.3,0c2.2-0.7,3.5-2.3,3.5-2.4c0.2-0.2,0.2-0.5,0.2-0.8
			C53.7,76.6,52.8,72.4,51.7,71.3z" />
<circle fill="#00A2FF" cx="39" cy="64" r="6" />
<path fill="#00A2FF" d="M46,73c-1-1-7-1-7-1s-6,0-7,1c-0.8,0.8-1.6,4.6-1.9,6.2c-0.1,0.5,0.2,0.9,0.6,1.1c1.4,0.6,4.6,1.7,8.3,1.7
			s6.9-1.1,8.3-1.7c0.4-0.2,0.7-0.6,0.6-1.1C47.6,77.6,46.8,73.8,46,73z" />
	</g>
<g id="friends">
<g>
<path fill="#00A2FF" d="M11,70c-3.3,0-6-2.7-6-6s2.7-6,6-6s6,2.7,6,6S14.3,70,11,70z M11,60c-2.2,0-4,1.8-4,4s1.8,4,4,4
				s4-1.8,4-4S13.2,60,11,60z" />
		</g>
<g>
<path fill="#00A2FF" d="M19,70.6c-0.4,0-0.8-0.2-0.9-0.6c-0.2-0.5,0-1.1,0.5-1.3C20.1,68,21,66.6,21,65c0-1.9-1.3-3.5-3.2-3.9
				c-0.5-0.1-0.9-0.6-0.8-1.2c0.1-0.5,0.6-0.9,1.2-0.8c2.8,0.6,4.8,3,4.8,5.9c0,2.4-1.4,4.5-3.6,5.5C19.3,70.6,19.1,70.6,19,70.6z" />
		</g>
<g>
<path fill="#00A2FF" d="M11,82c-5.2,0-8.4-2.1-8.5-2.2c-0.3-0.2-0.5-0.6-0.4-1c0.2-1.2,1.1-5.4,2.3-6.5C5.5,71.1,9.4,71,11,71
				c1.6,0,5.5,0.1,6.7,1.3c1.1,1.1,2,5.3,2.3,6.5c0.1,0.4-0.1,0.8-0.4,1C19.4,79.9,16.2,82,11,82z M4.1,78.5C5.2,79,7.6,80,11,80
				c3.4,0,5.8-1,6.9-1.5c-0.5-2.1-1.2-4.3-1.6-4.8C15.9,73.3,13.4,73,11,73c-2.4,0-4.9,0.3-5.3,0.7C5.3,74.1,4.6,76.4,4.1,78.5z" />
		</g>
<g>
<path fill="#00A2FF" d="M22,81c-0.4,0-0.8-0.3-1-0.7c-0.2-0.5,0.1-1.1,0.7-1.2c1.1-0.3,1.8-1,2.2-1.3c-0.5-2.2-1.2-4.6-1.6-5
				c-0.6-0.6-2.6-2-3.4-2.1c-0.5-0.1-0.9-0.6-0.9-1.1c0.1-0.5,0.5-1,1.1-0.9c1.7,0.2,4.3,2.4,4.6,2.7c1.1,1.1,2,5.3,2.3,6.5
				c0.1,0.3,0,0.6-0.2,0.8c-0.1,0.1-1.3,1.7-3.5,2.4C22.2,81,22.1,81,22,81z" />
		</g>
	</g>
<g id="addfriend-on">
<circle fill="#00A2FF" cx="42" cy="36" r="6" />
<path fill="#00A2FF" d="M46,51h-2c-0.6,0-1-0.4-1-1v-2c0-0.6,0.4-1,1-1h2c0.6,0,1-0.4,1-1v-1c-1.6-1-5-1-5-1s-6,0-7,1
			c-1,1-2,7-2,7s4.1,2,9,2c1.1,0,3.1,0,5-1v-1C47,51.4,46.6,51,46,51z" />
<path fill="#00A2FF" d="M53,48h-3v-3c0-0.6-0.4-1-1-1s-1,0.4-1,1v3h-3c-0.6,0-1,0.4-1,1s0.4,1,1,1h3v3c0,0.6,0.4,1,1,1s1-0.4,1-1
			v-3h3c0.6,0,1-0.4,1-1S53.6,48,53,48z" />
	</g>
<g id="addfriend">
<g>
<path fill="#00A2FF" d="M14,42c-3.3,0-6-2.7-6-6s2.7-6,6-6s6,2.7,6,6S17.3,42,14,42z M14,32c-2.2,0-4,1.8-4,4s1.8,4,4,4
				s4-1.8,4-4S16.2,32,14,32z" />
		</g>
<g>
<path fill="#00A2FF" d="M14,54c-5.2,0-8.4-2.1-8.5-2.2c-0.3-0.2-0.5-0.6-0.4-1c0.2-1.2,1.1-5.4,2.3-6.5C8.5,43.1,12.4,43,14,43
				c0.1,0,1.6,0,3.1,0.2c0.5,0.1,0.9,0.6,0.9,1.1s-0.6,0.9-1.1,0.9C15.5,45,14,45,14,45c0,0,0,0,0,0c-2.4,0-4.8,0.3-5.3,0.7
				c-0.4,0.4-1.1,2.7-1.6,4.8C8.2,51,10.6,52,14,52c1,0,1.9-0.1,2.8-0.2c0.5-0.1,1.1,0.3,1.2,0.8s-0.3,1.1-0.8,1.2
				C16.1,53.9,15.1,54,14,54z" />
		</g>
<g>
<path fill="#00A2FF" d="M25,50h-8c-0.6,0-1-0.4-1-1s0.4-1,1-1h8c0.6,0,1,0.4,1,1S25.6,50,25,50z" />
		</g>
<g>
<path fill="#00A2FF" d="M21,54c-0.6,0-1-0.4-1-1v-8c0-0.6,0.4-1,1-1s1,0.4,1,1v8C22,53.6,21.6,54,21,54z" />
		</g>
	</g>
<path id="message-on" fill="#00A2FF" d="M53,3H31c-0.5,0-1,0.5-1,1v16c0,0.5,0.5,1,1,1h7l3.3,3.3c0.4,0.4,1,0.4,1.4,0L46,21h7
		c0.5,0,1-0.5,1-1V4C54,3.5,53.5,3,53,3z M48,15H36c-0.6,0-1-0.4-1-1s0.4-1,1-1h12c0.6,0,1,0.4,1,1S48.6,15,48,15z M48,11H36
		c-0.6,0-1-0.4-1-1s0.4-1,1-1h12c0.6,0,1,0.4,1,1S48.6,11,48,11z" />
<g id="message">
<g>
<path fill="#00A2FF" d="M14,25c-0.3,0-0.5-0.1-0.7-0.3L9.6,21H3c-0.6,0-1-0.4-1-1V4c0-0.6,0.4-1,1-1h22c0.6,0,1,0.4,1,1v16
				c0,0.6-0.4,1-1,1h-6.6l-3.7,3.7C14.5,24.9,14.3,25,14,25z M4,19h6c0.3,0,0.5,0.1,0.7,0.3l3.3,3.3l3.3-3.3
				c0.2-0.2,0.4-0.3,0.7-0.3h6V5H4V19z" />
		</g>
<g>
<path fill="#00A2FF" d="M20,11H8c-0.6,0-1-0.4-1-1s0.4-1,1-1h12c0.6,0,1,0.4,1,1S20.6,11,20,11z" />
		</g>
<g>
<path fill="#00A2FF" d="M20,15H8c-0.6,0-1-0.4-1-1s0.4-1,1-1h12c0.6,0,1,0.4,1,1S20.6,15,20,15z" />
		</g>
	</g>
</g>
<g id="Navigation">
</g>
<g id="Friends_Status">
<path fill="#00A2FF" d="M21,241c-1.4,0-2.6,0.7-3.3,1.7l-6.9-3.5c0.1-0.4,0.2-0.8,0.2-1.3s-0.1-0.9-0.2-1.3l6.9-3.5
		c0.7,1,1.9,1.7,3.3,1.7c2.2,0,4-1.8,4-4s-1.8-4-4-4s-4,1.8-4,4c0,0.1,0,0.2,0,0.4L9.7,235C9,234.4,8,234,7,234c-2.2,0-4,1.8-4,4
		s1.8,4,4,4c1,0,2-0.4,2.7-1l7.4,3.7c0,0.1,0,0.2,0,0.4c0,2.2,1.8,4,4,4s4-1.8,4-4S23.2,241,21,241z M21,229c1.1,0,2,0.9,2,2
		s-0.9,2-2,2s-2-0.9-2-2S19.9,229,21,229z M7,240c-1.1,0-2-0.9-2-2s0.9-2,2-2s2,0.9,2,2S8.1,240,7,240z M21,247c-1.1,0-2-0.9-2-2
		s0.9-2,2-2s2,0.9,2,2S22.1,247,21,247z" />
<path fill="#00A2FF" d="M49,241c-1.4,0-2.6,0.7-3.3,1.7l-6.9-3.5c0.1-0.4,0.2-0.8,0.2-1.3s-0.1-0.9-0.2-1.3l6.9-3.5
		c0.7,1,1.9,1.7,3.3,1.7c2.2,0,4-1.8,4-4s-1.8-4-4-4s-4,1.8-4,4c0,0.1,0,0.2,0,0.4l-7.4,3.7c-0.7-0.6-1.6-1-2.7-1c-2.2,0-4,1.8-4,4
		s1.8,4,4,4c1,0,2-0.4,2.7-1l7.4,3.7c0,0.1,0,0.2,0,0.4c0,2.2,1.8,4,4,4s4-1.8,4-4S51.2,241,49,241z" />
</g>
</svg>
