<?xml version="1.0" encoding="utf-8"?>
<!-- Generator: Adobe Illustrator 19.1.0, SVG Export Plug-In . SVG Version: 6.00 Build 0)  -->
<!DOCTYPE svg PUBLIC "-//W3C//DTD SVG 1.1//EN" "http://www.w3.org/Graphics/SVG/1.1/DTD/svg11.dtd">
<svg version="1.1" id="label" xmlns="http://www.w3.org/2000/svg" xmlns:xlink="http://www.w3.org/1999/xlink" x="0px" y="0px"
	 width="106px" height="154px" viewBox="0 0 106 154" style="enable-background:new 0 0 106 154;" xml:space="preserve">
<style type="text/css">
	.st0{fill:#191919;}
	.st1{fill:#FFFFFF;}
	.st2{fill:#FFE000;}
	.st3{fill:#02B757;}
	.st4{fill:#F68802;}
	.st5{fill:#00A2FF;}
</style>
<g id="unique-obc">
	<g>
		<polygon class="st0" points="106,154 72,154 64,140 98,140 		"/>
		<g>
			<g>
				<path class="st1" d="M75.6,147c0-2.5,1.4-4,3.5-4c2,0,3.5,1.5,3.5,4c0,2.5-1.4,4.1-3.5,4.1C77,151.1,75.6,149.6,75.6,147z
					 M81.1,147c0-1.8-0.8-2.8-2-2.8c-1.2,0-2,1.1-2,2.8c0,1.8,0.8,2.9,2,2.9C80.3,149.9,81.1,148.8,81.1,147z"/>
				<path class="st1" d="M83.9,143.2h2.5c1.6,0,2.8,0.5,2.8,1.9c0,0.7-0.4,1.5-1.3,1.7v0c1.1,0.2,1.8,0.8,1.8,1.9
					c0,1.6-1.3,2.3-3,2.3h-2.7V143.2z M86.3,146.4c1.1,0,1.6-0.4,1.6-1.2c0-0.7-0.5-1-1.5-1h-1v2.2H86.3z M86.5,149.9
					c1.2,0,1.8-0.4,1.8-1.3c0-0.8-0.6-1.2-1.8-1.2h-1.2v2.5H86.5z"/>
				<path class="st1" d="M94.1,143c1,0,1.7,0.5,2.2,1l-0.8,0.9c-0.4-0.4-0.9-0.6-1.5-0.6c-1.3,0-2.2,1.1-2.2,2.8
					c0,1.8,0.9,2.9,2.2,2.9c0.7,0,1.2-0.3,1.7-0.8l0.8,0.9c-0.6,0.7-1.5,1.1-2.4,1.1c-2,0-3.6-1.4-3.6-4
					C90.5,144.5,92.1,143,94.1,143z"/>
			</g>
		</g>
	</g>
	<g>
		<polygon class="st2" points="70,154 52,154 44,140 62,140 		"/>
		<polygon class="st3" points="52,154 0,154 0,140 44,140 		"/>
		<g>
			<g>
				<path class="st1" d="M4,143.2h1.4v6.7h3.2v1.2H4V143.2z"/>
				<path class="st1" d="M9.8,143.2h1.4v7.8H9.8V143.2z"/>
				<path class="st1" d="M13,143.2h1.5L16,147l0.5,1.5h0L17,147l1.4-3.9H20v7.8h-1.3v-3.6c0-0.7,0.1-1.8,0.2-2.5h0l-0.6,1.8
					l-1.4,3.6h-0.6l-1.4-3.6l-0.6-1.8h0c0.1,0.7,0.2,1.8,0.2,2.5v3.6H13V143.2z"/>
				<path class="st1" d="M21.8,143.2h1.4v7.8h-1.4V143.2z"/>
				<path class="st1" d="M26.6,144.3h-2.3v-1.2h5.9v1.2H28v6.7h-1.4V144.3z"/>
				<path class="st1" d="M31.4,143.2h4.7v1.2h-3.3v2h2.8v1.2h-2.8v2.3h3.4v1.2h-4.8V143.2z"/>
				<path class="st1" d="M37.6,143.2h2.1c2.4,0,3.8,1.3,3.8,3.9c0,2.6-1.4,4-3.8,4h-2.2V143.2z M39.6,149.9c1.6,0,2.5-0.9,2.5-2.8
					c0-1.9-0.9-2.8-2.5-2.8H39v5.6H39.6z"/>
			</g>
		</g>
		<g>
			<g>
				<path class="st0" d="M53.9,143.2h1.4v4.5c0,1.7,0.6,2.3,1.6,2.3c1,0,1.6-0.6,1.6-2.3v-4.5h1.3v4.4c0,2.6-1.2,3.6-3,3.6
					c-1.8,0-3-1-3-3.6V143.2z"/>
			</g>
		</g>
	</g>
</g>
<g id="unique-tbc">
	<g>
		<polygon class="st4" points="106,140 72,140 64,126 98,126 		"/>
		<g>
			<g>
				<path class="st1" d="M77.6,130.3h-2.3v-1.2h5.9v1.2H79v6.7h-1.4V130.3z"/>
				<path class="st1" d="M82.4,129.2h2.5c1.6,0,2.8,0.5,2.8,1.9c0,0.7-0.4,1.5-1.3,1.7v0c1.1,0.2,1.8,0.8,1.8,1.9
					c0,1.6-1.3,2.3-3,2.3h-2.7V129.2z M84.7,132.4c1.1,0,1.6-0.4,1.6-1.2c0-0.7-0.5-1-1.5-1h-1v2.2H84.7z M84.9,135.9
					c1.2,0,1.8-0.4,1.8-1.3c0-0.8-0.6-1.2-1.8-1.2h-1.2v2.5H84.9z"/>
				<path class="st1" d="M92.5,129c1,0,1.7,0.5,2.2,1l-0.8,0.9c-0.4-0.4-0.9-0.6-1.5-0.6c-1.3,0-2.2,1.1-2.2,2.8
					c0,1.8,0.9,2.9,2.2,2.9c0.7,0,1.2-0.3,1.7-0.8l0.8,0.9c-0.6,0.7-1.5,1.1-2.4,1.1c-2,0-3.6-1.4-3.6-4
					C88.9,130.5,90.5,129,92.5,129z"/>
			</g>
		</g>
	</g>
	<g>
		<polygon class="st2" points="70,140 52,140 44,126 62,126 		"/>
		<polygon class="st3" points="52,140 0,140 0,126 44,126 		"/>
		<g>
			<g>
				<path class="st1" d="M4,129.2h1.4v6.7h3.2v1.2H4V129.2z"/>
				<path class="st1" d="M9.8,129.2h1.4v7.8H9.8V129.2z"/>
				<path class="st1" d="M13,129.2h1.5L16,133l0.5,1.5h0L17,133l1.4-3.9H20v7.8h-1.3v-3.6c0-0.7,0.1-1.8,0.2-2.5h0l-0.6,1.8
					l-1.4,3.6h-0.6l-1.4-3.6l-0.6-1.8h0c0.1,0.7,0.2,1.8,0.2,2.5v3.6H13V129.2z"/>
				<path class="st1" d="M21.8,129.2h1.4v7.8h-1.4V129.2z"/>
				<path class="st1" d="M26.6,130.3h-2.3v-1.2h5.9v1.2H28v6.7h-1.4V130.3z"/>
				<path class="st1" d="M31.4,129.2h4.7v1.2h-3.3v2h2.8v1.2h-2.8v2.3h3.4v1.2h-4.8V129.2z"/>
				<path class="st1" d="M37.6,129.2h2.1c2.4,0,3.8,1.3,3.8,3.9c0,2.6-1.4,4-3.8,4h-2.2V129.2z M39.6,135.9c1.6,0,2.5-0.9,2.5-2.8
					c0-1.9-0.9-2.8-2.5-2.8H39v5.6H39.6z"/>
			</g>
		</g>
		<g>
			<g>
				<path class="st0" d="M53.9,129.2h1.4v4.5c0,1.7,0.6,2.3,1.6,2.3c1,0,1.6-0.6,1.6-2.3v-4.5h1.3v4.4c0,2.6-1.2,3.6-3,3.6
					c-1.8,0-3-1-3-3.6V129.2z"/>
			</g>
		</g>
	</g>
</g>
<g id="unique-bc">
	<g>
		<polygon class="st5" points="98,126 72,126 64,112 90,112 		"/>
		<g>
			<g>
				<path class="st1" d="M76,115.2h2.5c1.6,0,2.8,0.5,2.8,1.9c0,0.7-0.4,1.5-1.3,1.7v0c1.1,0.2,1.8,0.8,1.8,1.9c0,1.6-1.3,2.3-3,2.3
					H76V115.2z M78.4,118.4c1.1,0,1.6-0.4,1.6-1.2c0-0.7-0.5-1-1.5-1h-1v2.2H78.4z M78.5,121.9c1.2,0,1.8-0.4,1.8-1.3
					c0-0.8-0.6-1.2-1.8-1.2h-1.2v2.5H78.5z"/>
				<path class="st1" d="M86.2,115c1,0,1.7,0.5,2.2,1l-0.8,0.9c-0.4-0.4-0.9-0.6-1.5-0.6c-1.3,0-2.2,1.1-2.2,2.8
					c0,1.8,0.9,2.9,2.2,2.9c0.7,0,1.2-0.3,1.7-0.8l0.8,0.9c-0.6,0.7-1.5,1.1-2.4,1.1c-2,0-3.6-1.4-3.6-4
					C82.5,116.5,84.2,115,86.2,115z"/>
			</g>
		</g>
	</g>
	<g>
		<polygon class="st2" points="70,126 52,126 44,112 62,112 		"/>
		<polygon class="st3" points="52,126 0,126 0,112 44,112 		"/>
		<g>
			<g>
				<path class="st1" d="M4,115.2h1.4v6.7h3.2v1.2H4V115.2z"/>
				<path class="st1" d="M9.8,115.2h1.4v7.8H9.8V115.2z"/>
				<path class="st1" d="M13,115.2h1.5L16,119l0.5,1.5h0L17,119l1.4-3.9H20v7.8h-1.3v-3.6c0-0.7,0.1-1.8,0.2-2.5h0l-0.6,1.8
					l-1.4,3.6h-0.6l-1.4-3.6l-0.6-1.8h0c0.1,0.7,0.2,1.8,0.2,2.5v3.6H13V115.2z"/>
				<path class="st1" d="M21.8,115.2h1.4v7.8h-1.4V115.2z"/>
				<path class="st1" d="M26.6,116.3h-2.3v-1.2h5.9v1.2H28v6.7h-1.4V116.3z"/>
				<path class="st1" d="M31.4,115.2h4.7v1.2h-3.3v2h2.8v1.2h-2.8v2.3h3.4v1.2h-4.8V115.2z"/>
				<path class="st1" d="M37.6,115.2h2.1c2.4,0,3.8,1.3,3.8,3.9c0,2.6-1.4,4-3.8,4h-2.2V115.2z M39.6,121.9c1.6,0,2.5-0.9,2.5-2.8
					c0-1.9-0.9-2.8-2.5-2.8H39v5.6H39.6z"/>
			</g>
		</g>
		<g>
			<g>
				<path class="st0" d="M53.9,115.2h1.4v4.5c0,1.7,0.6,2.3,1.6,2.3c1,0,1.6-0.6,1.6-2.3v-4.5h1.3v4.4c0,2.6-1.2,3.6-3,3.6
					c-1.8,0-3-1-3-3.6V115.2z"/>
			</g>
		</g>
	</g>
</g>
<g id="unique">
	<polygon class="st2" points="70,112 52,112 44,98 62,98 	"/>
	<polygon class="st3" points="52,112 0,112 0,98 44,98 	"/>
	<g>
		<g>
			<path class="st1" d="M4,101.2h1.4v6.7h3.2v1.2H4V101.2z"/>
			<path class="st1" d="M9.8,101.2h1.4v7.8H9.8V101.2z"/>
			<path class="st1" d="M13,101.2h1.5L16,105l0.5,1.5h0L17,105l1.4-3.9H20v7.8h-1.3v-3.6c0-0.7,0.1-1.8,0.2-2.5h0l-0.6,1.8l-1.4,3.6
				h-0.6l-1.4-3.6l-0.6-1.8h0c0.1,0.7,0.2,1.8,0.2,2.5v3.6H13V101.2z"/>
			<path class="st1" d="M21.8,101.2h1.4v7.8h-1.4V101.2z"/>
			<path class="st1" d="M26.6,102.3h-2.3v-1.2h5.9v1.2H28v6.7h-1.4V102.3z"/>
			<path class="st1" d="M31.4,101.2h4.7v1.2h-3.3v2h2.8v1.2h-2.8v2.3h3.4v1.2h-4.8V101.2z"/>
			<path class="st1" d="M37.6,101.2h2.1c2.4,0,3.8,1.3,3.8,3.9c0,2.6-1.4,4-3.8,4h-2.2V101.2z M39.6,107.9c1.6,0,2.5-0.9,2.5-2.8
				c0-1.9-0.9-2.8-2.5-2.8H39v5.6H39.6z"/>
		</g>
	</g>
	<g>
		<g>
			<path class="st0" d="M53.9,101.2h1.4v4.5c0,1.7,0.6,2.3,1.6,2.3c1,0,1.6-0.6,1.6-2.3v-4.5h1.3v4.4c0,2.6-1.2,3.6-3,3.6
				c-1.8,0-3-1-3-3.6V101.2z"/>
		</g>
	</g>
</g>
<g id="limited-obc">
	<g>
		<polygon class="st3" points="52,98 0,98 0,84 44,84 		"/>
		<g>
			<g>
				<path class="st1" d="M4,87.2h1.4v6.7h3.2V95H4V87.2z"/>
				<path class="st1" d="M9.8,87.2h1.4V95H9.8V87.2z"/>
				<path class="st1" d="M13,87.2h1.5L16,91l0.5,1.5h0L17,91l1.4-3.9H20V95h-1.3v-3.6c0-0.7,0.1-1.8,0.2-2.5h0l-0.6,1.8l-1.4,3.6
					h-0.6l-1.4-3.6l-0.6-1.8h0c0.1,0.7,0.2,1.8,0.2,2.5V95H13V87.2z"/>
				<path class="st1" d="M21.8,87.2h1.4V95h-1.4V87.2z"/>
				<path class="st1" d="M26.6,88.3h-2.3v-1.2h5.9v1.2H28V95h-1.4V88.3z"/>
				<path class="st1" d="M31.4,87.2h4.7v1.2h-3.3v2h2.8v1.2h-2.8v2.3h3.4V95h-4.8V87.2z"/>
				<path class="st1" d="M37.6,87.2h2.1c2.4,0,3.8,1.3,3.8,3.9c0,2.6-1.4,4-3.8,4h-2.2V87.2z M39.6,93.9c1.6,0,2.5-0.9,2.5-2.8
					c0-1.9-0.9-2.8-2.5-2.8H39v5.6H39.6z"/>
			</g>
		</g>
	</g>
	<g>
		<polygon class="st0" points="88,98 54,98 46,84 80,84 		"/>
		<g>
			<g>
				<path class="st1" d="M57.6,91c0-2.5,1.4-4,3.5-4c2,0,3.5,1.5,3.5,4c0,2.5-1.4,4.1-3.5,4.1C59,95.1,57.6,93.6,57.6,91z M63.1,91
					c0-1.8-0.8-2.8-2-2.8c-1.2,0-2,1.1-2,2.8c0,1.8,0.8,2.9,2,2.9C62.3,93.9,63.1,92.8,63.1,91z"/>
				<path class="st1" d="M65.9,87.2h2.5c1.6,0,2.8,0.5,2.8,1.9c0,0.7-0.4,1.5-1.3,1.7v0c1.1,0.2,1.8,0.8,1.8,1.9
					c0,1.6-1.3,2.3-3,2.3h-2.7V87.2z M68.3,90.4c1.1,0,1.6-0.4,1.6-1.2c0-0.7-0.5-1-1.5-1h-1v2.2H68.3z M68.5,93.9
					c1.2,0,1.8-0.4,1.8-1.3c0-0.8-0.6-1.2-1.8-1.2h-1.2v2.5H68.5z"/>
				<path class="st1" d="M76.1,87c1,0,1.7,0.5,2.2,1l-0.8,0.9c-0.4-0.4-0.9-0.6-1.5-0.6c-1.3,0-2.2,1.1-2.2,2.8
					c0,1.8,0.9,2.9,2.2,2.9c0.7,0,1.2-0.3,1.7-0.8l0.8,0.9c-0.6,0.7-1.5,1.1-2.4,1.1c-2,0-3.6-1.4-3.6-4C72.5,88.5,74.1,87,76.1,87z
					"/>
			</g>
		</g>
	</g>
</g>
<g id="limited-tbc">
	<g>
		<polygon class="st3" points="52,84 0,84 0,70 44,70 		"/>
		<g>
			<g>
				<path class="st1" d="M4,73.2h1.4v6.7h3.2V81H4V73.2z"/>
				<path class="st1" d="M9.8,73.2h1.4V81H9.8V73.2z"/>
				<path class="st1" d="M13,73.2h1.5L16,77l0.5,1.5h0L17,77l1.4-3.9H20V81h-1.3v-3.6c0-0.7,0.1-1.8,0.2-2.5h0l-0.6,1.8l-1.4,3.6
					h-0.6l-1.4-3.6l-0.6-1.8h0c0.1,0.7,0.2,1.8,0.2,2.5V81H13V73.2z"/>
				<path class="st1" d="M21.8,73.2h1.4V81h-1.4V73.2z"/>
				<path class="st1" d="M26.6,74.3h-2.3v-1.2h5.9v1.2H28V81h-1.4V74.3z"/>
				<path class="st1" d="M31.4,73.2h4.7v1.2h-3.3v2h2.8v1.2h-2.8v2.3h3.4V81h-4.8V73.2z"/>
				<path class="st1" d="M37.6,73.2h2.1c2.4,0,3.8,1.3,3.8,3.9c0,2.6-1.4,4-3.8,4h-2.2V73.2z M39.6,79.9c1.6,0,2.5-0.9,2.5-2.8
					c0-1.9-0.9-2.8-2.5-2.8H39v5.6H39.6z"/>
			</g>
		</g>
	</g>
	<g>
		<polygon class="st4" points="88,84 54,84 46,70 80,70 		"/>
		<g>
			<g>
				<path class="st1" d="M59.6,74.3h-2.3v-1.2h5.9v1.2H61V81h-1.4V74.3z"/>
				<path class="st1" d="M64.4,73.2h2.5c1.6,0,2.8,0.5,2.8,1.9c0,0.7-0.4,1.5-1.3,1.7v0c1.1,0.2,1.8,0.8,1.8,1.9
					c0,1.6-1.3,2.3-3,2.3h-2.7V73.2z M66.7,76.4c1.1,0,1.6-0.4,1.6-1.2c0-0.7-0.5-1-1.5-1h-1v2.2H66.7z M66.9,79.9
					c1.2,0,1.8-0.4,1.8-1.3c0-0.8-0.6-1.2-1.8-1.2h-1.2v2.5H66.9z"/>
				<path class="st1" d="M74.5,73c1,0,1.7,0.5,2.2,1L76,74.9c-0.4-0.4-0.9-0.6-1.5-0.6c-1.3,0-2.2,1.1-2.2,2.8
					c0,1.8,0.9,2.9,2.2,2.9c0.7,0,1.2-0.3,1.7-0.8l0.8,0.9c-0.6,0.7-1.5,1.1-2.4,1.1c-2,0-3.6-1.4-3.6-4C70.9,74.5,72.5,73,74.5,73z
					"/>
			</g>
		</g>
	</g>
</g>
<g id="limited-bc">
	<g>
		<polygon class="st3" points="52,70 0,70 0,56 44,56 		"/>
		<g>
			<g>
				<path class="st1" d="M4,59.2h1.4v6.7h3.2V67H4V59.2z"/>
				<path class="st1" d="M9.8,59.2h1.4V67H9.8V59.2z"/>
				<path class="st1" d="M13,59.2h1.5L16,63l0.5,1.5h0L17,63l1.4-3.9H20V67h-1.3v-3.6c0-0.7,0.1-1.8,0.2-2.5h0l-0.6,1.8l-1.4,3.6
					h-0.6l-1.4-3.6l-0.6-1.8h0c0.1,0.7,0.2,1.8,0.2,2.5V67H13V59.2z"/>
				<path class="st1" d="M21.8,59.2h1.4V67h-1.4V59.2z"/>
				<path class="st1" d="M26.6,60.3h-2.3v-1.2h5.9v1.2H28V67h-1.4V60.3z"/>
				<path class="st1" d="M31.4,59.2h4.7v1.2h-3.3v2h2.8v1.2h-2.8v2.3h3.4V67h-4.8V59.2z"/>
				<path class="st1" d="M37.6,59.2h2.1c2.4,0,3.8,1.3,3.8,3.9c0,2.6-1.4,4-3.8,4h-2.2V59.2z M39.6,65.9c1.6,0,2.5-0.9,2.5-2.8
					c0-1.9-0.9-2.8-2.5-2.8H39v5.6H39.6z"/>
			</g>
		</g>
	</g>
	<g>
		<polygon class="st5" points="80,70 54,70 46,56 72,56 		"/>
		<g>
			<g>
				<path class="st1" d="M58,59.2h2.5c1.6,0,2.8,0.5,2.8,1.9c0,0.7-0.4,1.5-1.3,1.7v0c1.1,0.2,1.8,0.8,1.8,1.9c0,1.6-1.3,2.3-3,2.3
					H58V59.2z M60.4,62.4c1.1,0,1.6-0.4,1.6-1.2c0-0.7-0.5-1-1.5-1h-1v2.2H60.4z M60.5,65.9c1.2,0,1.8-0.4,1.8-1.3
					c0-0.8-0.6-1.2-1.8-1.2h-1.2v2.5H60.5z"/>
				<path class="st1" d="M68.2,59c1,0,1.7,0.5,2.2,1l-0.8,0.9c-0.4-0.4-0.9-0.6-1.5-0.6c-1.3,0-2.2,1.1-2.2,2.8
					c0,1.8,0.9,2.9,2.2,2.9c0.7,0,1.2-0.3,1.7-0.8l0.8,0.9c-0.6,0.7-1.5,1.1-2.4,1.1c-2,0-3.6-1.4-3.6-4C64.5,60.5,66.2,59,68.2,59z
					"/>
			</g>
		</g>
	</g>
</g>
<g id="limited">
	<polygon class="st3" points="52,56 0,56 0,42 44,42 	"/>
	<g>
		<g>
			<path class="st1" d="M4,45.2h1.4v6.7h3.2V53H4V45.2z"/>
			<path class="st1" d="M9.8,45.2h1.4V53H9.8V45.2z"/>
			<path class="st1" d="M13,45.2h1.5L16,49l0.5,1.5h0L17,49l1.4-3.9H20V53h-1.3v-3.6c0-0.7,0.1-1.8,0.2-2.5h0l-0.6,1.8l-1.4,3.6
				h-0.6l-1.4-3.6l-0.6-1.8h0c0.1,0.7,0.2,1.8,0.2,2.5V53H13V45.2z"/>
			<path class="st1" d="M21.8,45.2h1.4V53h-1.4V45.2z"/>
			<path class="st1" d="M26.6,46.3h-2.3v-1.2h5.9v1.2H28V53h-1.4V46.3z"/>
			<path class="st1" d="M31.4,45.2h4.7v1.2h-3.3v2h2.8v1.2h-2.8v2.3h3.4V53h-4.8V45.2z"/>
			<path class="st1" d="M37.6,45.2h2.1c2.4,0,3.8,1.3,3.8,3.9c0,2.6-1.4,4-3.8,4h-2.2V45.2z M39.6,51.9c1.6,0,2.5-0.9,2.5-2.8
				c0-1.9-0.9-2.8-2.5-2.8H39v5.6H39.6z"/>
		</g>
	</g>
</g>
<g id="obc">
	<polygon class="st0" points="34,42 0,42 0,28 26,28 	"/>
	<g>
		<g>
			<path class="st1" d="M3.6,35c0-2.5,1.4-4,3.5-4c2,0,3.5,1.5,3.5,4c0,2.5-1.4,4.1-3.5,4.1C5,39.1,3.6,37.6,3.6,35z M9.1,35
				c0-1.8-0.8-2.8-2-2.8c-1.2,0-2,1.1-2,2.8c0,1.8,0.8,2.9,2,2.9C8.3,37.9,9.1,36.8,9.1,35z"/>
			<path class="st1" d="M11.9,31.2h2.5c1.6,0,2.8,0.5,2.8,1.9c0,0.7-0.4,1.5-1.3,1.7v0c1.1,0.2,1.8,0.8,1.8,1.9c0,1.6-1.3,2.3-3,2.3
				h-2.7V31.2z M14.3,34.4c1.1,0,1.6-0.4,1.6-1.2c0-0.7-0.5-1-1.5-1h-1v2.2H14.3z M14.5,37.9c1.2,0,1.8-0.4,1.8-1.3
				c0-0.8-0.6-1.2-1.8-1.2h-1.2v2.5H14.5z"/>
			<path class="st1" d="M22.1,31c1,0,1.7,0.5,2.2,1l-0.8,0.9c-0.4-0.4-0.9-0.6-1.5-0.6c-1.3,0-2.2,1.1-2.2,2.8
				c0,1.8,0.9,2.9,2.2,2.9c0.7,0,1.2-0.3,1.7-0.8l0.8,0.9c-0.6,0.7-1.5,1.1-2.4,1.1c-2,0-3.6-1.4-3.6-4C18.5,32.5,20.1,31,22.1,31z"
				/>
		</g>
	</g>
</g>
<g id="tbc">
	<polygon class="st4" points="34,28 0,28 0,14 26,14 	"/>
	<g>
		<g>
			<path class="st1" d="M5.6,18.3H3.3v-1.2h5.9v1.2H7V25H5.6V18.3z"/>
			<path class="st1" d="M10.4,17.2h2.5c1.6,0,2.8,0.5,2.8,1.9c0,0.7-0.4,1.5-1.3,1.7v0c1.1,0.2,1.8,0.8,1.8,1.9c0,1.6-1.3,2.3-3,2.3
				h-2.7V17.2z M12.7,20.4c1.1,0,1.6-0.4,1.6-1.2c0-0.7-0.5-1-1.5-1h-1v2.2H12.7z M12.9,23.9c1.2,0,1.8-0.4,1.8-1.3
				c0-0.8-0.6-1.2-1.8-1.2h-1.2v2.5H12.9z"/>
			<path class="st1" d="M20.5,17c1,0,1.7,0.5,2.2,1L22,18.9c-0.4-0.4-0.9-0.6-1.5-0.6c-1.3,0-2.2,1.1-2.2,2.8c0,1.8,0.9,2.9,2.2,2.9
				c0.7,0,1.2-0.3,1.7-0.8l0.8,0.9c-0.6,0.7-1.5,1.1-2.4,1.1c-2,0-3.6-1.4-3.6-4C16.9,18.5,18.5,17,20.5,17z"/>
		</g>
	</g>
</g>
<g id="bc">
	<polygon class="st5" points="26,14 0,14 0,0 18,0 	"/>
	<g>
		<g>
			<path class="st1" d="M4,3.2h2.5c1.6,0,2.8,0.5,2.8,1.9c0,0.7-0.4,1.5-1.3,1.7v0C9.1,7,9.7,7.6,9.7,8.7c0,1.6-1.3,2.3-3,2.3H4V3.2
				z M6.4,6.4c1.1,0,1.6-0.4,1.6-1.2c0-0.7-0.5-1-1.5-1h-1v2.2H6.4z M6.6,9.9c1.2,0,1.8-0.4,1.8-1.3c0-0.8-0.6-1.2-1.8-1.2H5.4v2.5
				H6.6z"/>
			<path class="st1" d="M14.2,3c1,0,1.7,0.5,2.2,1l-0.8,0.9c-0.4-0.4-0.9-0.6-1.5-0.6c-1.3,0-2.2,1.1-2.2,2.8c0,1.8,0.9,2.9,2.2,2.9
				c0.7,0,1.2-0.3,1.7-0.8l0.8,0.9c-0.6,0.7-1.5,1.1-2.4,1.1c-2,0-3.6-1.4-3.6-4C10.5,4.5,12.2,3,14.2,3z"/>
		</g>
	</g>
</g>
</svg>
